<?xml version="1.0" encoding="utf-8"?>
<!-- Generator: Adobe Illustrator 22.0.1, SVG Export Plug-In . SVG Version: 6.00 Build 0)  -->
<svg version="1.1" id="Layer_1" xmlns="http://www.w3.org/2000/svg" xmlns:xlink="http://www.w3.org/1999/xlink" x="0px" y="0px"
	 viewBox="0 0 800 266" style="enable-background:new 0 0 800 266;" xml:space="preserve">
<style type="text/css">
	.st0{fill:#CB2128;}
	.st1{fill:#FFFFFF;}
	.st2{fill:#3A3B3A;}
</style>
<path class="st0" d="M22.1,163c0.2-0.2,0.5-0.8,1-0.9c6.1-2.2,12.2-4.3,18.3-6.4c5.9-2.1,11.9-4.2,17.8-6.3c1.6-0.6,3.2-1.3,4.9-1.7
	c0.7-0.2,1.6-0.2,2.3,0c4.3,1.4,8.6,3,12.9,4.5c4.5,1.6,9.1,3.1,13.6,4.6c3.5,1.2,7.1,2.5,10.6,3.8c1.3,0.5,2.7,0.9,4,1.3
	c0.8,0.2,1,0.7,0.9,1.4c-0.6,4.9-1.2,9.7-1.8,14.6c-0.6,4.7-1.1,9.4-1.7,14.1c-0.5,4.3-1,8.6-1.6,13c-0.5,4.2-1,8.4-1.5,12.7
	c-0.1,0.8-0.4,1.3-1.1,1.7c-4.2,2.2-8.4,4.5-12.5,6.8c-4.4,2.4-8.7,4.7-13.1,7.1c-3.4,1.8-6.7,3.6-10,5.5c-0.6,0.3-1.1,0.3-1.7,0
	c-7.3-4.2-14.6-8.3-21.9-12.4c-4-2.2-8-4.5-11.9-6.8c-0.5-0.3-0.8-1-0.9-1.5c-0.4-2.5-0.7-4.9-0.9-7.4c-0.3-2.8-0.6-5.5-1-8.3
	l-2.1-17.7l-1.8-15C22.6,167.5,22.4,165.4,22.1,163L22.1,163z M27.6,140.8H6.2L54,28.3h22.4l48.8,112.5h-22.4L90,110.1H52.5L59.7,92
	h22.7L64.6,49.8C64.6,49.8,27.6,140.8,27.6,140.8z M138.9,140.8V28.3h20.8l59.4,82v-82h20.1v112.5h-20.8L159,57.1v83.7L138.9,140.8
	L138.9,140.8z M352.5,135.6c-9.1,4-20.4,6-34.1,6c-39.7,0-59.6-19.5-59.6-58.6c0-37,20.2-55.5,60.6-55.5c12.3,0,23.3,1.8,33,5.5
	v18.9c-9.7-4.2-20.2-6.3-31.5-6.3c-27,0-40.5,12.5-40.5,37.4c0,27,12.7,40.5,38.2,40.5c3.8,0,8.1-0.6,12.9-1.9V88.9h20.8v46.7H352.5
	z M372.2,96.6V28.3H393v68.3c0,17.9,9.2,26.9,27.5,26.9c18.4,0,27.5-9,27.5-26.9V28.3h20.8v68.3c0,30-16.1,45-48.4,45
	C388.3,141.6,372.2,126.6,372.2,96.6L372.2,96.6z M513.4,28.3v94.4h44.7v18.1h-65.5V28.3C492.6,28.3,513.4,28.3,513.4,28.3z
	 M589.3,140.8h-21.4l47.8-112.5h22.4l48.8,112.5h-22.4l-12.8-30.7h-37.4l7.2-18.1H644l-17.7-42.2L589.3,140.8L589.3,140.8z
	 M700.6,140.7V28.3h51.1c23,0,34.5,10,34.5,30.1c0,13.6-8.9,24.8-26.8,33.7l35.6,48.6h-26.3l-34.2-49v-9.5
	c19.9-3.4,29.9-11.1,29.9-23.2c0-8.3-4.7-12.4-14-12.4h-28.6v94L700.6,140.7L700.6,140.7z"/>
<path class="st1" d="M28.5,167.3c0.2-0.2,0.4-0.7,0.8-0.8c5.2-1.9,10.4-3.7,15.6-5.5c5.1-1.8,10.1-3.6,15.2-5.4
	c1.4-0.5,2.7-1.1,4.2-1.5c0.6-0.2,1.4-0.2,2,0c3.7,1.2,7.3,2.5,11,3.8c3.9,1.3,7.7,2.6,11.6,3.9c3,1,6,2.1,9,3.2
	c1.1,0.4,2.3,0.8,3.4,1.1c0.7,0.2,0.9,0.6,0.8,1.2c-0.5,4.1-1,8.3-1.5,12.4c-0.5,4-0.9,8-1.4,12c-0.4,3.7-0.9,7.4-1.3,11
	s-0.9,7.2-1.2,10.8c-0.1,0.7-0.4,1.1-1,1.4c-3.6,1.9-7.1,3.9-10.7,5.8c-3.7,2-7.5,4-11.2,6c-2.9,1.5-5.7,3.1-8.5,4.7
	c-0.5,0.3-0.9,0.3-1.4,0c-6.2-3.5-12.4-7.1-18.6-10.6c-3.4-1.9-6.8-3.8-10.2-5.8c-0.4-0.2-0.7-0.8-0.8-1.3c-0.3-2.1-0.6-4.2-0.8-6.3
	c-0.3-2.3-0.5-4.7-0.8-7c-0.6-5-1.2-10-1.8-15.1c-0.5-4.3-1-8.5-1.6-12.8C28.9,171.1,28.8,169.3,28.5,167.3L28.5,167.3z"/>
<path class="st2" d="M138.6,235.3v-77.6h33.1c14.8,0,22.1,6,22.1,18.1c0,8.8-4.8,15.1-14.4,18.9c10.3,1.9,15.4,7.8,15.4,17.6
	c0,15.3-8.1,22.9-24.2,22.9L138.6,235.3L138.6,235.3z M169.9,227.2c9.3,0,13.9-4.7,13.9-14.1c0-9.1-6.2-13.7-18.6-13.7h-4.3v-6.6
	c14.8-2,22.2-7.3,22.2-16.1c0-7.2-4.1-10.8-12.4-10.8h-22.1v61.3L169.9,227.2L169.9,227.2z M208,196.6c0-26.3,13-39.4,38.9-39.4
	c25.6,0,38.3,13.1,38.3,39.4c0,26.1-12.8,39.2-38.3,39.2C221,235.9,208,222.8,208,196.6L208,196.6z M246.9,227.7
	c18.5,0,27.8-10.5,27.8-31.4c0-20.6-9.3-31-27.8-31c-18.9,0-28.4,10.3-28.4,31C218.6,217.2,228,227.7,246.9,227.7L246.9,227.7z
	 M298.3,196.6c0-26.3,13-39.4,38.9-39.4c25.6,0,38.3,13.1,38.3,39.4c0,26.1-12.8,39.2-38.3,39.2
	C311.3,235.9,298.3,222.8,298.3,196.6L298.3,196.6z M337.3,227.7c18.5,0,27.8-10.5,27.8-31.4c0-20.6-9.3-31-27.8-31
	c-18.9,0-28.4,10.3-28.4,31C308.9,217.2,318.3,227.7,337.3,227.7z M443.7,157.7v8.1h-24.4v69.4h-10v-69.4h-24.4v-8.1L443.7,157.7
	L443.7,157.7z M541.3,232.6c-6.7,2.2-13.9,3.3-21.7,3.3c-27.1,0-40.7-13.5-40.7-40.4c0-25.5,13.6-38.2,40.7-38.2
	c7.8,0,15,1.1,21.7,3.3v8.7c-6.7-2.5-13.6-3.8-20.6-3.8c-21.2,0-31.7,10-31.7,30.1c0,21.5,10.6,32.3,31.7,32.3
	c7.1,0,13.9-1.3,20.6-3.8V232.6z M560.4,235.3H550l32.9-77.6H594l33.1,77.6H616l-10-24.4h-25.7l2.8-8.1h19.5l-14.5-35.1L560.4,235.3
	L560.4,235.3z M637.7,235.3v-77.6h12.7l28.5,64.7l27.9-64.7H719v77.6h-8.9v-63.6l-27.6,63.6h-7.9l-28-63.6v63.6L637.7,235.3
	L637.7,235.3z M737.5,235.3v-77.6H769c15.8,0,23.8,6.9,23.8,20.8c0,15.1-10.8,24.3-32.5,27.6l-2.1-8.5c15.9-2.3,23.9-8.6,23.9-18.7
	c0-8.6-4.7-12.9-14-12.9h-20.5v69.3L737.5,235.3L737.5,235.3z"/>
</svg>
