<svg xmlns="http://www.w3.org/2000/svg" width="472" height="188" version="1.0" viewBox="0 0 354 141.75">
  <defs>
    <clipPath id="a">
      <path d="M41.18 51H77v37H41.18Zm0 0"/>
    </clipPath>
    <clipPath id="b">
      <path d="M308 38h4.95v50H308Zm0 0"/>
    </clipPath>
  </defs>

  <!--
    For the dark-mode logo, the text was changed from #26231f (dark
    grey) to #ffffff (white). The palm tree trunk and leaf colors were
    left as-is.
  -->

  <!-- "oasis digital" -->
  <g clip-path="url(#a)">
    <path fill="#ffffff" d="M70.258 69.781c0 6.418-4.973 12.063-11.16 12.063-6.633 0-11.164-5.606-11.164-12.063 0-6.824 4.57-12.062 11.164-12.062 6.222.039 11.16 5.238 11.16 12.062m-11.16-18.074c-9.504 0-17.387 7.637-17.387 18.074 0 10.035 7.883 18.078 17.387 18.078 9.097 0 16.98-8.043 16.98-18.078 0-10.437-7.883-18.074-16.98-18.074"/>
  </g>
  <path fill="#ffffff" d="M90.555 68.195c3.718 0 7.441 1.993 7.441 6.418 0 5.61-3.723 7.23-7.883 7.23-4.125 0-7.035-2.394-7.035-7.23.035-4.425 3.758-6.418 7.477-6.418m13.261 18.485V64.582c0-9.223-3.722-12.84-12.414-12.84-2.91 0-6.632.813-8.695 1.219l-1.656 6.824c3.316-1.992 6.629-1.992 9.504-1.992 4.566 0 7.441.406 7.441 5.238v2.805c-2.062-2.398-4.973-3.211-8.289-3.211-6.227 0-12.414 4.426-12.414 12.063 0 7.636 4.566 13.246 11.605 13.246 4.125 0 7.883-.813 9.504-4.836v4.836l5.414-1.254M110.445 78.23c1.66 2.399 3.723 4.02 6.633 4.02 2.465 0 5.375-1.215 5.375-4.426 0-8.851-15.726-2.804-15.726-15.68 0-6.011 4.566-10.437 10.351-10.437 4.567 0 7.035 1.219 10.348 4.426l-3.719 4.426c-2.062-1.993-3.316-3.207-6.227-3.207-2.464 0-4.972.812-4.972 4.02 0 7.636 15.73 1.991 15.73 15.679 0 6.418-4.972 10.844-10.758 10.844-4.972 0-8.285-1.622-11.16-5.606l4.125-4.059M130.707 87.86V52.52l6.223-.813v34.934l-6.223 1.218m2.91-49.394 4.125 5.238-3.722 5.238-4.125-5.238 3.722-5.238M143.969 78.23c1.656 2.399 3.719 4.02 6.629 4.02 2.468 0 5.379-1.215 5.379-4.426 0-8.851-15.73-2.804-15.73-15.68 0-6.011 4.565-10.437 10.35-10.437 4.567 0 7.036 1.219 10.352 4.426l-3.722 4.426c-1.657-1.993-3.313-3.207-6.223-3.207-2.469 0-4.57.812-4.57 4.02 0 7.636 15.324 1.991 15.324 15.679 0 6.418-4.973 10.844-10.754 10.844-4.973 0-8.29-1.622-11.164-5.606l4.129-4.059M211.008 69.781c0 7.637-5.781 14.055-12.817 14.055-7.441 0-12.414-6.418-12.414-14.055 0-6.824 4.973-13.648 12.414-13.648 6.63 0 12.817 4.832 12.817 13.648m0-10.844h-.403c-2.91-4.023-7.039-6.824-12.414-6.824-9.101 0-16.136 7.637-16.136 17.668 0 10.442 7.035 17.672 16.136 17.672 5.375 0 9.946-2.805 12.414-6.418h.403v6.418l3.316-.812V38.059l-3.316.808v20.07M218.488 87.488V52.926l3.719-.813V86.68l-3.719.808m4.532-46.222-2.91 3.617-2.91-3.617 2.91-3.207 2.91 3.207M258.234 87.488V52.926l3.72-.813V86.68l-3.72.808m4.532-46.222-2.91 3.617-2.91-3.617 2.91-3.207 2.91 3.207M268.988 44.477l3.723-1.993v10.442h8.691v4.02h-8.691v20.878c0 4.02 1.656 5.606 5.781 5.606h2.91v3.617c-1.25 0-2.062.406-3.312.406-5.785 0-9.102-3.617-9.102-9.629V56.945h-4.125l.813-4.02h3.312v-8.448"/>
  <path fill="#ffffff" d="M285.125 75.832c0-5.605 3.313-8.852 8.285-8.852 4.57 0 7.883 3.207 7.883 8.446 0 4.832-3.313 8.449-7.883 8.449-4.16 0-8.285-3.246-8.285-8.043m-.406-17.3c2.469-.813 6.226-2.4 9.097-2.4 4.125 0 7.442 2.4 7.442 5.24v5.608c-2.063-1.992-5.38-4.023-8.25-4.023-7.035 0-11.606 5.238-11.606 12.84 0 7.23 5.38 11.656 12.008 11.656 3.723 0 6.227-1.625 7.442-4.023h.406v4.023l3.719-.812V60.523c0-5.609-4.973-8.449-9.946-8.449-3.312 0-6.222.813-9.097 1.992l-1.215 4.465"/>
  <g clip-path="url(#b)">
    <path fill="#ffffff" d="m312.05 86.68-3.718.808v-48.62l3.719-.81V86.68"/>
  </g>
  <path fill="#ffffff" d="M239.594 57.352c5.785 0 11.605 5.238 11.605 13.648s-6.226 12.836-11.605 12.836c-5.781 0-11.602-4.426-11.602-12.836s5.82-13.648 11.602-13.648M225.93 96.71c4.566 11.254 14.07 11.254 14.07 11.254 15.727 0 14.477-16.86 14.477-16.86V71.406c0-6.015-1.254-10.035-4.125-13.242l-.813-.406c.406.406 1.254.406 2.063.406.812 0 1.66 0 2.91-.812l1.254-5.61c-3.723 1.219-7.883 1.992-12.008 1.992-1.254 0-2.91-.406-4.125-.406-8.29 0-14.922 6.824-14.922 18.484 0 5.239 2.91 11.25 6.633 13.243 0 0 9.945 7.23 18.636-1.22l.813-1.62v9.222c0 14.055-10.758 12.47-10.758 12.47-7.035 0-8.691-5.61-10.351-8.044l-3.754.848"/>
 
  <!-- bottom palm leaves -->
  <path fill="#70bf44" d="M201.91 42.89c0-10.035-9.504-16.488-20.703-19.699l-1.25 1.993c11.16 2.804 19.45 10.035 19.45 19.699l2.503-1.992M148.941 32.45c3.72-9.223 14.918-11.25 27.735-10.438l-2.063 2.398c-13.258 1.215-20.297 1.621-23.61 10.844l-2.062-2.805"/>

  <!-- palm trunk -->
  <path fill="#029049" d="M179.55 21.973s-8.69 9.629-4.124 34.933c0 0 9.097 26.93-8.29 30.953l-2.468-6.015s11.605-3.207 5.785-24.492c0 0-7.035-17.672 9.098-35.38"/>

  <!-- top palm leaves -->
  <path fill="#70bf44" d="M154.723 13.563c7.441-5.645 16.136-.813 24.02 6.011l-.813 1.219c-9.504-5.605-14.918-10.035-23.614-4.426l.407-2.805M208.137 21.605c-6.227-7.23-15.325-6.418-25.676-1.625l-1.254 1.625c10.352-4.832 20.297-4.425 26.89 3.207l.04-3.207"/>

  <!-- "a Valiantys company" -->
  <path fill="#ffffff" d="M74.105 124.875c-.793 0-1.36-.207-1.703-.625-.344-.425-.558-.957-.64-1.593h-.125c-.305.843-.797 1.48-1.485 1.906-.687.414-1.508.625-2.453.625-1.45 0-2.574-.367-3.375-1.11-.805-.738-1.203-1.738-1.203-3 0-1.289.469-2.28 1.406-2.968.945-.688 2.414-1.031 4.406-1.031h2.704v-1.344c0-.969-.266-1.707-.797-2.219-.532-.508-1.344-.766-2.438-.766-.824 0-1.515.188-2.078.563a4.438 4.438 0 0 0-1.375 1.469l-1.266-1.188c.364-.738.954-1.363 1.766-1.875.813-.52 1.832-.781 3.063-.781 1.656 0 2.94.406 3.859 1.219.914.804 1.375 1.93 1.375 3.375v7.5h1.547v1.843Zm-6.062-1.484c.52 0 1-.055 1.437-.172a3.5 3.5 0 0 0 1.14-.531c.321-.227.571-.492.75-.797.177-.3.267-.629.267-.984v-2.235h-2.813c-1.21 0-2.094.18-2.656.532-.555.343-.828.855-.828 1.53v.548c0 .668.238 1.187.718 1.562.489.367 1.149.547 1.985.547ZM88.608 124.875l-5.937-18.437h4.062l2.75 8.86 1.454 5.78h.078l1.39-5.78 2.75-8.86h3.938l-6 18.437ZM111.513 124.875c-.7 0-1.282-.218-1.75-.656-.47-.445-.766-1.035-.891-1.765h-.156c-.211.898-.68 1.578-1.407 2.046-.718.457-1.605.688-2.656.688-1.398 0-2.465-.367-3.203-1.11-.742-.738-1.11-1.71-1.11-2.921 0-1.47.532-2.555 1.594-3.266 1.07-.707 2.524-1.062 4.36-1.062h2.187v-.875c0-.665-.18-1.196-.53-1.594-.356-.395-.946-.594-1.767-.594-.773 0-1.386.168-1.843.5-.461.336-.84.711-1.14 1.125l-2.329-2.062a6.115 6.115 0 0 1 2.125-1.938c.852-.469 2.016-.703 3.484-.703 1.97 0 3.442.434 4.422 1.297.988.867 1.485 2.125 1.485 3.781v6.078h1.296v3.031Zm-5.407-2.406c.645 0 1.203-.14 1.672-.422.469-.28.703-.738.703-1.375v-1.625h-1.906c-1.531 0-2.297.516-2.297 1.547V121c0 .512.156.887.469 1.125.32.23.773.344 1.36.344ZM120.17 124.875c-1.336 0-2.313-.32-2.938-.968-.625-.657-.937-1.598-.937-2.828v-15.75h3.906v16.515h1.734v3.031ZM126.244 109.532c-.793 0-1.37-.176-1.734-.532-.367-.363-.547-.828-.547-1.39v-.578c0-.57.18-1.035.547-1.39.363-.364.941-.548 1.734-.548.79 0 1.363.184 1.719.547.363.356.547.82.547 1.39v.579c0 .562-.184 1.027-.547 1.39-.356.356-.93.532-1.719.532Zm-1.953 1.484h3.906v13.86h-3.906ZM142.073 124.875c-.699 0-1.281-.218-1.75-.656-.468-.445-.765-1.035-.89-1.765h-.157c-.21.898-.68 1.578-1.406 2.046-.719.457-1.605.688-2.656.688-1.399 0-2.465-.367-3.203-1.11-.742-.738-1.11-1.71-1.11-2.921 0-1.47.532-2.555 1.594-3.266 1.07-.707 2.524-1.062 4.36-1.062h2.187v-.875c0-.665-.18-1.196-.531-1.594-.356-.395-.946-.594-1.766-.594-.773 0-1.387.168-1.844.5-.46.336-.84.711-1.14 1.125l-2.328-2.062a6.115 6.115 0 0 1 2.125-1.938c.851-.469 2.015-.703 3.484-.703 1.969 0 3.441.434 4.422 1.297.988.867 1.484 2.125 1.484 3.781v6.078h1.297v3.031Zm-5.406-2.406c.645 0 1.203-.14 1.672-.422.469-.28.703-.738.703-1.375v-1.625h-1.906c-1.531 0-2.297.516-2.297 1.547V121c0 .512.156.887.469 1.125.32.23.773.344 1.359.344ZM146.855 124.875v-13.859h3.907v2.344h.156c.25-.719.68-1.344 1.297-1.875.613-.531 1.468-.797 2.562-.797 1.426 0 2.504.48 3.235 1.437.726.95 1.093 2.305 1.093 4.063v8.687H155.2V116.5c0-.894-.14-1.554-.422-1.984-.281-.437-.789-.656-1.515-.656-.313 0-.622.043-.922.125-.305.074-.575.199-.813.375-.23.18-.418.398-.562.656-.137.25-.203.543-.203.875v8.984ZM167.444 124.875c-1.368 0-2.399-.343-3.094-1.03-.688-.688-1.031-1.692-1.031-3.016v-6.782h-1.953v-3.03h.968c.532 0 .89-.126 1.078-.376.196-.258.297-.629.297-1.11v-2.265h3.516v3.75h2.75v3.031h-2.75v7.797h2.531v3.031ZM181.16 111.016h3.641l-5.328 16c-.355 1.07-.855 1.863-1.5 2.375-.636.508-1.554.766-2.75.766h-2.437v-3.032h2.625l.469-1.53-4.86-14.579h3.89l2.032 6.469 1 4.015h.156l1.032-4.015ZM191.472 125.188c-1.336 0-2.46-.215-3.375-.64a7.847 7.847 0 0 1-2.453-1.844l2.297-2.313a6.05 6.05 0 0 0 1.625 1.297c.602.312 1.285.469 2.047.469.77 0 1.305-.118 1.61-.36.3-.238.452-.562.452-.968 0-.645-.468-1.032-1.406-1.157l-1.5-.187c-3.117-.383-4.672-1.813-4.672-4.281 0-.665.125-1.274.375-1.829a4.228 4.228 0 0 1 1.078-1.421 5.089 5.089 0 0 1 1.688-.922c.664-.227 1.41-.344 2.234-.344.727 0 1.367.055 1.922.156.55.094 1.04.235 1.469.422.437.188.832.418 1.187.688.364.273.723.574 1.079.906l-2.25 2.297a5.022 5.022 0 0 0-1.485-1.032 4.002 4.002 0 0 0-1.703-.39c-.668 0-1.14.105-1.422.312-.281.211-.422.492-.422.844 0 .375.098.668.297.875.207.2.594.34 1.156.422l1.547.219c3.051.398 4.578 1.789 4.578 4.172a4.06 4.06 0 0 1-.421 1.843 4.367 4.367 0 0 1-1.204 1.47 5.887 5.887 0 0 1-1.875.952c-.73.227-1.546.344-2.453.344ZM211.8 125.188c-.949 0-1.804-.168-2.562-.5a5.214 5.214 0 0 1-1.907-1.422c-.523-.613-.921-1.36-1.203-2.234-.273-.883-.406-1.875-.406-2.97 0-1.093.133-2.077.406-2.952.282-.883.68-1.633 1.203-2.25a5.302 5.302 0 0 1 1.907-1.422c.758-.332 1.613-.5 2.562-.5 1.352 0 2.438.297 3.25.89a5.38 5.38 0 0 1 1.844 2.297l-1.766.907c-.25-.707-.656-1.254-1.218-1.64-.563-.384-1.266-.58-2.11-.58-.637 0-1.195.106-1.672.313-.468.2-.867.48-1.187.844a3.484 3.484 0 0 0-.703 1.281 5.546 5.546 0 0 0-.235 1.657v2.312c0 1.2.317 2.184.953 2.953.645.762 1.594 1.14 2.844 1.14 1.707 0 2.942-.788 3.703-2.374l1.532 1.031a5.37 5.37 0 0 1-1.97 2.36c-.874.57-1.964.859-3.265.859ZM225.153 125.188c-.918 0-1.758-.168-2.516-.5a5.442 5.442 0 0 1-1.937-1.438 6.896 6.896 0 0 1-1.25-2.234c-.305-.875-.453-1.86-.453-2.953 0-1.07.148-2.047.453-2.922.3-.883.719-1.64 1.25-2.266a5.489 5.489 0 0 1 1.937-1.437c.758-.332 1.598-.5 2.516-.5.914 0 1.75.168 2.5.5.75.336 1.394.812 1.937 1.437.551.625.973 1.383 1.266 2.266.3.875.453 1.852.453 2.922 0 1.094-.152 2.078-.453 2.953a6.456 6.456 0 0 1-1.266 2.234 5.477 5.477 0 0 1-1.937 1.438c-.75.332-1.586.5-2.5.5Zm0-1.875c1.144 0 2.078-.348 2.797-1.047.726-.707 1.094-1.781 1.094-3.219v-1.968c0-1.438-.368-2.504-1.094-3.204-.719-.707-1.653-1.062-2.797-1.062-1.148 0-2.078.355-2.797 1.062-.719.7-1.078 1.766-1.078 3.204v1.968c0 1.438.36 2.512 1.078 3.22.719.698 1.649 1.046 2.797 1.046ZM234.791 124.875V111.25h2.11v2.22h.109c.156-.352.332-.68.531-.985.207-.313.453-.582.735-.813a3.26 3.26 0 0 1 1.015-.53c.395-.134.86-.204 1.39-.204a4.92 4.92 0 0 1 2.47.64c.757.43 1.328 1.137 1.703 2.126h.047c.25-.739.71-1.383 1.39-1.938.676-.55 1.594-.828 2.75-.828 1.395 0 2.485.453 3.266 1.36.781.906 1.172 2.187 1.172 3.843v8.734h-2.11V116.5c0-1.207-.242-2.117-.718-2.734-.47-.625-1.227-.937-2.266-.937-.43 0-.828.058-1.203.171a3.404 3.404 0 0 0-1.016.47c-.304.21-.543.48-.719.812-.167.324-.25.703-.25 1.14v9.453h-2.125V116.5c0-1.207-.242-2.117-.718-2.734-.469-.625-1.203-.937-2.203-.937-.43 0-.836.058-1.22.171-.386.106-.73.262-1.03.47a2.41 2.41 0 0 0-.735.812c-.18.324-.265.703-.265 1.14v9.453ZM257.83 111.25h2.11v2.22h.11c.343-.864.85-1.5 1.53-1.907.688-.414 1.504-.625 2.454-.625.843 0 1.609.168 2.297.5.687.336 1.269.809 1.75 1.422.488.617.859 1.367 1.109 2.25.258.875.39 1.86.39 2.953 0 1.094-.132 2.086-.39 2.969-.25.875-.621 1.62-1.11 2.234a4.882 4.882 0 0 1-1.75 1.422c-.687.332-1.453.5-2.296.5-1.856 0-3.184-.844-3.985-2.531h-.11v7.5h-2.108Zm5.626 12.047c1.195 0 2.132-.375 2.812-1.125.688-.75 1.031-1.734 1.031-2.953v-2.312c0-1.22-.343-2.203-1.031-2.953-.68-.75-1.617-1.125-2.812-1.125-.481 0-.938.07-1.375.203-.43.136-.805.32-1.125.547-.313.23-.563.507-.75.828-.18.324-.266.672-.266 1.047v5.062c0 .438.086.828.266 1.172.187.344.437.637.75.875.32.242.695.422 1.125.547.437.125.894.187 1.375.187ZM283.028 124.875c-.793 0-1.36-.207-1.703-.625-.344-.425-.559-.957-.64-1.593h-.126c-.305.843-.797 1.48-1.484 1.906-.688.414-1.508.625-2.453.625-1.45 0-2.575-.367-3.375-1.11-.805-.738-1.204-1.738-1.204-3 0-1.289.47-2.28 1.407-2.968.945-.688 2.414-1.031 4.406-1.031h2.703v-1.344c0-.969-.266-1.707-.797-2.219-.531-.508-1.344-.766-2.437-.766-.824 0-1.516.188-2.078.563a4.438 4.438 0 0 0-1.375 1.469l-1.266-1.188c.363-.738.953-1.363 1.766-1.875.812-.52 1.832-.781 3.062-.781 1.656 0 2.942.406 3.86 1.219.914.804 1.374 1.93 1.374 3.375v7.5h1.547v1.843Zm-6.063-1.484c.52 0 1-.055 1.438-.172a3.5 3.5 0 0 0 1.14-.531c.32-.227.57-.492.75-.797.176-.3.266-.629.266-.984v-2.235h-2.812c-1.211 0-2.094.18-2.657.532-.554.343-.828.855-.828 1.53v.548c0 .668.239 1.187.719 1.562.488.367 1.148.547 1.984.547ZM287.23 124.875V111.25h2.11v2.22h.109c.332-.77.8-1.384 1.406-1.845.602-.457 1.414-.687 2.437-.687 1.415 0 2.532.453 3.344 1.36.82.906 1.235 2.187 1.235 3.843v8.734h-2.11V116.5c0-2.445-1.031-3.671-3.094-3.671-.43 0-.84.058-1.234.171a3.728 3.728 0 0 0-1.078.47c-.313.21-.563.48-.75.812-.18.324-.266.703-.266 1.14v9.453ZM310.61 111.25h2.094l-6.109 16.797a7.455 7.455 0 0 1-.469 1.016 1.96 1.96 0 0 1-.578.64c-.23.157-.515.27-.86.344-.343.07-.765.11-1.265.11h-1.078v-1.844h2.14l1.032-2.906-5.094-14.157h2.11l3.265 9.266.64 2.219h.141l.735-2.219Zm0 0"/>
</svg>